<svg id="Layer_1" data-name="Layer 1" xmlns="http://www.w3.org/2000/svg" width="32px" height="32px" viewBox="0 0 415.01 250.02"><defs><style>.cls-1{fill:#4d4d4d;stroke:#000;stroke-miterlimit:10;}</style></defs><title>hamburger_v2</title><path class="cls-1" d="M532.5,249V236.67a18.88,18.88,0,0,0-19.17-19.17H138.67c-10.82,0-20.17,8.35-20.17,19.17V249a19,19,0,0,0,19.17,19.5H512.33A19.15,19.15,0,0,0,532.5,249Z" transform="translate(-117.99 -118)"/><path class="cls-1" d="M532.5,150V137.67a18.88,18.88,0,0,0-19.17-19.17H138.67c-10.82,0-20.17,8.35-20.17,19.17V150a19,19,0,0,0,19.17,19.5H512.33A19.15,19.15,0,0,0,532.5,150Z" transform="translate(-117.99 -118)"/><path class="cls-1" d="M532.5,348V335.67a18.88,18.88,0,0,0-19.17-19.17H138.67c-10.82,0-20.17,8.35-20.17,19.17V348a19,19,0,0,0,19.17,19.5H512.33A19.15,19.15,0,0,0,532.5,348Z" transform="translate(-117.99 -118)"/></svg>
