<?xml version="1.0" encoding="utf-8"?>
<!-- Generator: Adobe Illustrator 19.2.1, SVG Export Plug-In . SVG Version: 6.00 Build 0)  -->
<svg version="1.1" id="Layer_1" xmlns="http://www.w3.org/2000/svg" xmlns:xlink="http://www.w3.org/1999/xlink" x="0px" y="0px"
	 viewBox="0 0 175 30" style="enable-background:new 0 0 175 30;" xml:space="preserve">
<g>
	<g transform="translate(35.882353, 6.470588)">
		<path d="M6.6,13.2V8.6H2.8v4.6H0.3V2.1h2.4v4.3h3.9V2.1H9v11.1L6.6,13.2L6.6,13.2L6.6,13.2z"/>
		<path d="M14.5,13.4c-0.2,0-0.5,0-0.7-0.1L13.2,15l-1.3-0.4l0.6-1.6c-1.1-0.6-1.7-1.8-1.7-3.6c0-2.7,1.7-4.5,4.1-4.5
			c0.2,0,0.4,0,0.6,0L16,3.3l1.3,0.4l-0.5,1.5c1,0.6,1.8,1.6,1.8,3.7C18.6,11.6,16.9,13.4,14.5,13.4L14.5,13.4L14.5,13.4z M14.3,6.9
			C13.7,7,13,7.6,13,9c0,0.6,0.1,1.2,0.3,1.6l1.4-3.7C14.6,6.8,14.5,6.8,14.3,6.9L14.3,6.9L14.3,6.9z M16,7.4l-1.4,3.9
			c0.1,0,0.3,0,0.4,0c0.8-0.1,1.4-0.8,1.4-2.2C16.4,8.4,16.2,7.9,16,7.4L16,7.4L16,7.4z"/>
		<path d="M23.3,17.3c-2.1,0-3.4-0.8-3.4-2.4c0-0.8,0.5-1.6,1.1-1.9c-0.4-0.2-0.7-0.7-0.7-1.3c0-0.7,0.4-1.3,0.9-1.5
			c-0.7-0.4-1.2-1.2-1.2-2.2c0-1.7,1.2-3.1,3.5-3.1c0.5,0,0.9,0.1,1.4,0.2h2.6v2h-0.9c0.1,0.2,0.2,0.4,0.2,0.7
			c0,1.8-1.1,2.9-3.4,2.9c-0.2,0-0.3,0-0.5-0.1c-0.2,0.1-0.3,0.3-0.3,0.4c0,0.3,0.2,0.4,1.1,0.4l1,0.1c1.7,0.1,2.7,0.8,2.7,2.4
			C27.6,15.7,26,17.3,23.3,17.3L23.3,17.3L23.3,17.3z M24.3,13.4l-1.2,0c-0.1,0-0.2,0-0.3,0c-0.3,0.3-0.5,0.7-0.5,1
			c0,0.6,0.5,1,1.4,1c1.1,0,1.7-0.5,1.7-1.1C25.3,13.8,25,13.4,24.3,13.4L24.3,13.4L24.3,13.4z M23.5,6.6c-0.7,0-1.2,0.5-1.2,1.2
			c0,0.7,0.4,1.2,1.2,1.2c0.7,0,1.2-0.4,1.2-1.1C24.7,7.1,24.3,6.6,23.5,6.6L23.5,6.6L23.5,6.6z"/>
		<path d="M30.8,13.4c-0.6,0-1.2-0.1-1.7-0.2l0.1-2c0.5,0.2,1,0.3,1.6,0.3c0.6,0,1-0.2,1-0.6c0-1.2-2.9-0.5-2.9-3.2
			c0-1.5,1.1-2.7,3.4-2.7c0.4,0,0.9,0.1,1.4,0.1l-0.1,2c-0.4-0.1-0.9-0.2-1.3-0.2c-0.6,0-0.9,0.2-0.9,0.6c0,1.1,2.9,0.6,2.9,3.2
			C34.3,12.3,32.9,13.4,30.8,13.4L30.8,13.4L30.8,13.4z"/>
		<path d="M40.6,13.2l-2.1-3.9v3.9h-2.4v-12h2.4v7.1l2-3.3h2.9l-2.6,3.8l2.7,4.4L40.6,13.2L40.6,13.2L40.6,13.2z"/>
		<path d="M47.9,13.4c-2.2,0-3.7-1.2-3.7-4.1c0-2.7,1.7-4.5,4.1-4.5c2.4,0,3.7,1.4,3.7,4.1C52,11.6,50.2,13.4,47.9,13.4L47.9,13.4
			L47.9,13.4z M48.1,7c-0.7,0-1.5,0.6-1.5,2c0,1.5,0.5,2.2,1.4,2.2c0.9,0,1.4-0.8,1.4-2.1C49.5,7.7,49.1,7,48.1,7L48.1,7L48.1,7z"/>
		<path d="M53.7,13.2v-12h2.4v12L53.7,13.2L53.7,13.2L53.7,13.2z"/>
		<path d="M64.9,9.7h-4.6c0,1.1,0.6,1.7,1.9,1.7c0.7,0,1.5-0.2,2.3-0.5l0.2,1.9c-0.9,0.4-1.9,0.6-2.9,0.6c-2.5,0-3.9-1.3-3.9-4.2
			c0-2.5,1.3-4.4,3.7-4.4C64,4.8,65,6.5,65,8.6C65,9,65,9.3,64.9,9.7L64.9,9.7L64.9,9.7z M61.6,6.6c-0.7,0-1.2,0.6-1.3,1.4h2.4
			C62.7,7.1,62.2,6.6,61.6,6.6L61.6,6.6L61.6,6.6z"/>
		<path d="M71.5,13.2V8c0-0.7-0.2-1.1-0.7-1.1c-0.8,0-1.5,1.1-1.5,2.3v4h-2.4V5H69c0,0.3,0,0.9-0.1,1.3l0,0c0.5-0.9,1.3-1.5,2.6-1.5
			c1.7,0,2.3,1.2,2.3,2.6v5.8H71.5L71.5,13.2z"/>
		<path d="M81,4c-0.8,0-1.5-0.7-1.5-1.5c0-0.8,0.7-1.5,1.5-1.5c0.8,0,1.5,0.7,1.5,1.5C82.5,3.4,81.9,4,81,4L81,4L81,4z M79.9,13.2V5
			h2.4v8.2H79.9L79.9,13.2z"/>
		<path d="M92.6,13.4c-0.3,0-0.5,0-0.8-0.1l-0.5,1.6l-1.7-0.6l0.5-1.5c-1.6-0.9-2.3-2.7-2.3-5.1c0-3.6,2.3-5.9,5.2-5.9
			c0.2,0,0.4,0,0.6,0.1l0.5-1.5l1.8,0.6l-0.5,1.4c1.5,0.8,2.4,2.4,2.4,5.1C97.9,11.1,95.6,13.4,92.6,13.4L92.6,13.4L92.6,13.4z
			 M92.2,4.2c-1.1,0.3-1.9,1.4-1.9,3.3c0,1.2,0.2,2.1,0.7,2.6l2-6C92.7,4.1,92.4,4.2,92.2,4.2L92.2,4.2L92.2,4.2z M94.6,4.9l-2,6.2
			c0.2,0,0.4,0,0.6,0c1.1-0.2,2.3-1.2,2.3-3.5C95.4,6.4,95.1,5.4,94.6,4.9L94.6,4.9L94.6,4.9z"/>
		<path d="M101.1,13.4c-0.6,0-1.2-0.1-1.7-0.2l0.1-2c0.5,0.2,1,0.3,1.6,0.3c0.6,0,1-0.2,1-0.6c0-1.2-2.9-0.5-2.9-3.2
			c0-1.5,1.1-2.7,3.4-2.7c0.4,0,0.9,0.1,1.4,0.1l-0.1,2c-0.4-0.1-0.9-0.2-1.3-0.2c-0.6,0-0.9,0.2-0.9,0.6c0,1.1,2.9,0.6,2.9,3.2
			C104.6,12.3,103.2,13.4,101.1,13.4L101.1,13.4L101.1,13.4z"/>
		<path d="M109.2,13.4c-1.8,0-2.4-0.6-2.4-2.6V6.9h-1.2V5h1.2V2.6l2.4-0.7V5h1.7v1.9h-1.7v3.2c0,0.8,0.2,1.1,0.8,1.1
			c0.3,0,0.5,0,0.8-0.1l0.1,2C110.4,13.3,109.7,13.4,109.2,13.4L109.2,13.4L109.2,13.4z"/>
		<path d="M117.4,3.2c-0.3-0.1-0.6-0.2-0.9-0.2c-0.7,0-1,0.4-1,1.2V5h1.6v1.9h-1.6v6.3h-2.4V6.9h-1.2V5h1.2V4.3
			c0-2.2,0.9-3.3,3.2-3.3c0.4,0,0.8,0,1.2,0.1L117.4,3.2L117.4,3.2z"/>
		<path d="M121.7,13.4c-2.2,0-3.7-1.2-3.7-4.1c0-2.7,1.7-4.5,4.1-4.5c2.4,0,3.7,1.4,3.7,4.1C125.7,11.6,124,13.4,121.7,13.4
			L121.7,13.4L121.7,13.4z M121.9,7c-0.7,0-1.5,0.6-1.5,2c0,1.5,0.5,2.2,1.4,2.2c0.9,0,1.4-0.8,1.4-2.1C123.3,7.7,122.9,7,121.9,7
			L121.9,7L121.9,7z"/>
		<path d="M127.5,13.2v-12h2.4v12L127.5,13.2L127.5,13.2L127.5,13.2z"/>
		<path d="M136.8,13.2c0-0.3,0-0.8,0.1-1.2h0c-0.4,0.8-1.2,1.4-2.4,1.4c-1.9,0-2.8-1.5-2.8-3.8c0-2.7,1.5-4.7,4.2-4.7
			c0.3,0,0.5,0,0.8,0V1.2h2.4v12H136.8L136.8,13.2z M136.6,6.9c-0.3-0.1-0.5-0.1-0.8-0.1c-0.9,0-1.6,0.6-1.6,2.5c0,1.4,0.3,2,1.1,2
			c0.8,0,1.4-1,1.4-2.4V6.9L136.6,6.9z"/>
	</g>
	<g>
		<path d="M8,19.6h3.5l4.8-13.1h-3.5L8,19.6L8,19.6z"/>
		<path d="M21.6,1.7l-1.1,3.1c3.5,2,5.8,5.7,5.8,10c0,6.4-5.2,11.5-11.5,11.5S3.2,21.1,3.2,14.8c0-6.4,5.2-11.5,11.5-11.5
			c0.9,0,1.8,0.1,2.7,0.3l1.1-3.1C17.3,0.2,16.1,0,14.8,0C6.6,0,0,6.6,0,14.8s6.6,14.8,14.8,14.8c8.1,0,14.8-6.6,14.8-14.8
			C29.5,9.1,26.3,4.2,21.6,1.7L21.6,1.7L21.6,1.7z"/>
		<path d="M15,19.6h3.5l3-8.2H18L15,19.6L15,19.6z"/>
	</g>
</g>
</svg>
