<svg id="Layer_1" data-name="Layer 1" xmlns="http://www.w3.org/2000/svg" width="32" height="32" viewBox="0 0 613.45 627.08"><defs><style>.cls-1{fill:#b3b3b3;}.cls-2{fill:#4d4d4d;}.cls-3{fill:#71d171;}.cls-4{fill:#39b54a;}.cls-5{fill:#9d9d9d;}.cls-6{fill:lime;}.cls-7{fill:#272727;}</style></defs><title>Logo_svg</title><path class="cls-1" d="M558.9,391l111,1a30,30,0,0,1,.62,58.94H559" transform="translate(-205.14 -165.4)"/><path class="cls-2" d="M363.8,510.66c-5.78-.51-57.91-4.46-78.66,28-1.76,2.76-6.84,11.33-8,25.35-4.89,59.15,68.62,112.9,84.67,124C419.1,727.74,477.31,732,495.14,732.74c23.19,0.94,83,.16,144-38,70.82-44.31,97.06-110.12,104.67-132,7.52-21.61,26.68-86.08,2-162-19.7-60.6-57.73-98.92-82-118.67-46.36-37.71-93.18-48.83-108.67-52-16-3.28-72.77-13.23-138.67,11.33-15.81,5.89-57,21.69-92.67,60-18.66,20.06-31.08,41.22-37.33,52a332.45,332.45,0,0,0-24.67,52.67,30.59,30.59,0,0,1-56.67-14,291.73,291.73,0,0,1,73.33-128,303.24,303.24,0,0,1,90.67-68c14.89-7.28,64.94-30.22,134-30.67,85.17-.56,146,33.44,162.67,43.33,59.26,35.19,92.94,82.06,110,111.33,46,78.93,43.92,154.77,42,181.33a317.07,317.07,0,0,1-58,160.67c-17,23.8-58.07,74.14-130,105.33-13.84,6-121.63,50.74-240,4-13.36-5.28-64.66-26.64-111.33-76-38.25-40.45-50.63-75.62-54-86-4.3-13.23-9.62-30.85-7.33-54,1-9.87,4.38-40,27.67-64.33,17.57-18.35,37.68-24.2,65.67-32.33a251.58,251.58,0,0,1,52-9.33Z" transform="translate(-205.14 -165.4)"/><path class="cls-3" d="M495.81,595.08l-72-2c-10.18-2.49-30.86-9.18-45-28-10.69-14.22-12.7-28.82-16-55a283.84,283.84,0,0,1-1-61c-0.69-6.06-3.11-33.35,15.71-58.21a81.58,81.58,0,0,1,42.29-28.79l79-3Z" transform="translate(-205.14 -165.4)"/><path class="cls-4" d="M499,359h16.19c-0.65,79-1.3,157-2,236H496" transform="translate(-205.14 -165.4)"/><path class="cls-5" d="M573.9,569.91c-5,0-9.9.13-14.9,0.17V511h14.81C573.8,531,573.9,550.28,573.9,569.91Z" transform="translate(-205.14 -165.4)"/><path class="cls-3" d="M557.81,347h-43q-0.87,100.5-1,201,0,33.5,0,67l44,1C557.8,526.36,557.8,437,557.81,347Z" transform="translate(-205.14 -165.4)"/><path class="cls-1" d="M573.8,391.32l96,1.73a30.12,30.12,0,0,1,23,28c0.52,13.73-8.6,26-22,30h-97C573.8,431,573.8,411.23,573.8,391.32Z" transform="translate(-205.14 -165.4)"/><path class="cls-5" d="M573.81,451h-15q-0.5-30-1-60l16,0.27C573.8,411.21,573.8,431,573.81,451Z" transform="translate(-205.14 -165.4)"/><path class="cls-3" d="M514.64,361c-0.28-5-.56-10-0.83-15H559V616.08l-45.93.5c0-5.17,0-10.35,0-15.52Q513.9,481.06,514.64,361Z" transform="translate(-205.14 -165.4)"/><path class="cls-1" d="M573.8,570.76h-15" transform="translate(-205.14 -165.4)"/><path class="cls-1" d="M573.81,511.56l96.71-.07a30.5,30.5,0,0,1,23.31,28.23c0.5,13.86-9.07,26.47-22.84,30.23H573.8" transform="translate(-205.14 -165.4)"/><path class="cls-1" d="M559.22,511.58h14.58" transform="translate(-205.14 -165.4)"/><path class="cls-6" d="M558.64,451.08c0.22,20,.36,40.28.58,60.5" transform="translate(-205.14 -165.4)"/><path class="cls-6" d="M558.81,392.08l-1,59" transform="translate(-205.14 -165.4)"/><path class="cls-7" d="M361,479.28a122.35,122.35,0,0,0-62.4,10.4c-10.37,4.77-31.57,14.53-44,35.2-26.58,44.19,7.5,104.07,15.2,117.6,19.51,34.29,45.42,52.84,64.8,66.4,60.77,42.53,122.78,50.19,143.2,52,25.56,2.27,104,8.07,182.4-42.4,73.87-47.56,102.64-116.08,112-142.4,32.79-92.17,7.06-171.17-.8-192.8C734.69,282.22,653.4,237,633,226.48c-27.61-14.29-90.41-41.07-170.4-29.6-21.15,3-78.83,13.82-133.6,57.6-39.41,31.5-60.59,66.72-73.6,88.8a368.27,368.27,0,0,0-33.6,75.2c2.56,1.12,13.07,5.37,24,.8,8.4-3.51,13.6-10,15.2-14.4a293.07,293.07,0,0,1,28.8-58.4c7.9-12.34,23.78-36.72,52-60.8a252.78,252.78,0,0,1,80.8-46.4c91-31.47,171,1.88,183.2,7.2A258.46,258.46,0,0,1,745,397.68c22.06,65.32,10.7,123.28,2.4,152-8.74,30.25-30.55,85.08-84.8,128.8-18.77,15.13-61.93,45.45-124.8,53.6,0,0-89,11.53-169.6-39.2a253.91,253.91,0,0,1-52-44c-14.88-16.44-27-30.16-33.6-52-4.07-13.52-11.06-36.38.8-56,11.26-18.63,33.33-24.14,45.6-27.2a100.13,100.13,0,0,1,34.4-2.4" transform="translate(-205.14 -165.4)"/><path class="cls-6" d="M558.81,391.08" transform="translate(-205.14 -165.4)"/></svg>
