<svg id="Layer_1" data-name="Layer 1" xmlns="http://www.w3.org/2000/svg" width="32" height="64" viewBox="0 0 170.11 241.73"><defs><style>.cls-1{fill:#29abe2;}.cls-1,.cls-2{stroke:#000;stroke-miterlimit:10;}.cls-2{fill:#feff4d;}.cls-3{fill:#72a870;}.cls-4{fill:#bfbf3a;}.cls-5{fill:#4c704b;}</style></defs><title>marker_yellow_v2</title><path class="cls-1" d="M168.51,133.51" transform="translate(-0.01 0)"/><path class="cls-2" d="M151.13,27.85C129.39,2.31,99.37.73,94.5,0.55l21,17.8a69.82,69.82,0,0,0-60.77.06L75.5,0.73C70.76,0.84,40.85,2,19.06,27.29-1.83,51.51.34,79.76,0.8,84.66L16.52,59.28a63.6,63.6,0,0,0-4.37,25.16C12.66,98,18,113,27.59,127H27.44a635.14,635.14,0,0,1,33.5,58c9.94,19.46,18.26,38,25.25,55.38,7.47-18.5,16.14-37.91,26.25-58.31,9.9-20,20-39.06,30-55.06h-0.09c9.58-14,14.92-29,15.33-42.57A62.2,62.2,0,0,0,153,59.23c5.48,8.58,11,17.1,16.43,25.69C169.82,79.67,171.58,51.88,151.13,27.85Z" transform="translate(-0.01 0)"/><path class="cls-3" d="M92,89.09q5.72,0.06,11.5.16l9,0.18a5.54,5.54,0,0,1,.19,10.77H92.06Q92.06,94.62,92,89.09Z" transform="translate(-0.01 0)"/><path class="cls-4" d="M59,89.26c-1.09-.1-10.89-0.84-14.79,5.27a10.35,10.35,0,0,0-1.5,4.77c-0.92,11.12,12.9,21.23,15.92,23.32a47.72,47.72,0,1,0,10.28-84A44.61,44.61,0,0,0,51.51,49.9a53.53,53.53,0,0,0-7,9.78,62.51,62.51,0,0,0-4.64,9.9A5.75,5.75,0,0,1,29.21,67,54.85,54.85,0,0,1,43,42.88,57,57,0,0,1,60,30.09a59,59,0,0,1,25.2-5.77,60.07,60.07,0,0,1,30.59,8.15,59.23,59.23,0,0,1-6.77,105c-2.6,1.13-22.87,9.54-45.13.75A59.86,59.86,0,0,1,43,124c-7.19-7.61-9.52-14.22-10.15-16.17a23.61,23.61,0,0,1-1.38-10.15,20.21,20.21,0,0,1,5.2-12.1C39.93,82.1,43.72,81,49,79.47a47.31,47.31,0,0,1,9.78-1.75Z" transform="translate(-0.01 0)"/><path class="cls-3" d="M87.27,105.23l-17-.48a15,15,0,0,1-8.46-5.26c-2-2.67-2.39-5.42-3-10.34a53.37,53.37,0,0,1-.19-11.47,15.56,15.56,0,0,1,3-10.94,15.34,15.34,0,0,1,8-5.41L87.46,61Q87.34,83.08,87.27,105.23Z" transform="translate(-0.01 0)"/><path class="cls-3" d="M92,66.75q5.72,0.06,11.5.16l9,0.18a5.54,5.54,0,0,1,.19,10.77H92.06Q92.06,72.29,92,66.75Z" transform="translate(-0.01 0)"/><path class="cls-5" d="M87.39,61.36a10.49,10.49,0,0,1-.16-1.85h4.95v48.82l-6.86.09c0-1,.89-1.46.89-2.43C86.31,91,87.29,76.4,87.39,61.36Z" transform="translate(-0.01 0)"/><path class="cls-5" d="M58.5,83.36a23,23,0,0,0-11.73,2c-1.95.9-5.94,2.73-8.27,6.62-5,8.31,1.41,19.57,2.86,22.11C45,120.54,49.9,124,53.54,126.58a56.5,56.5,0,0,0,26.93,9.78c4.81,0.43,19.56,1.52,34.3-8a53.23,53.23,0,0,0,21.06-26.78,54.31,54.31,0,0,0-.15-36.25,54.92,54.92,0,0,0-26-29.48,53.62,53.62,0,0,0-32-5.57A52.75,52.75,0,0,0,52.56,41.11a57.35,57.35,0,0,0-13.84,16.7A69.24,69.24,0,0,0,32.4,71.95a5.9,5.9,0,0,0,4.51.15,5.22,5.22,0,0,0,2.86-2.71,55.11,55.11,0,0,1,5.42-11A49.44,49.44,0,0,1,55,47a47.53,47.53,0,0,1,15.19-8.72c17.11-5.92,32.15.35,34.45,1.35a48.1,48.1,0,0,1,10.57,81.22,47.36,47.36,0,0,1-23.47,10.08S75,133.06,59.82,123.52A47.74,47.74,0,0,1,50,115.25c-2.8-3.09-5.08-5.67-6.32-9.78-0.77-2.54-2.08-6.84.15-10.53,2.12-3.5,6.27-4.54,8.57-5.11a18.83,18.83,0,0,1,6.47-.45" transform="translate(-0.01 0)"/></svg>
