<svg id="Layer_1" data-name="Layer 1" xmlns="http://www.w3.org/2000/svg" width="32" height="64" viewBox="0 0 170.12 243.01"><defs><style>.cls-1{fill:#98e095;}.cls-1,.cls-2{stroke:#000;stroke-miterlimit:10;}.cls-2{fill:#009245;}.cls-3{fill:#72a870;}.cls-4{fill:#4c704b;}</style></defs><title>marker_green</title><path class="cls-1" d="M2999.17,383.43c1.16,31.18,28,72.77,72.77,72.77s71.83-41.46,72.77-72.77a61.55,61.55,0,0,0-4.72-25.09l16.43,25.75c0.43-5.25,2.19-33-18.26-57-21.74-25.54-51.76-27.12-56.63-27.3l21,17.8a69.82,69.82,0,0,0-60.77.06L3062.53,300c-4.74.11-34.65,1.3-56.44,26.56-20.89,24.22-18.72,52.47-18.26,57.37l15.72-25.38A62.26,62.26,0,0,0,2999.17,383.43Z" transform="translate(-2987.04 -299.24)"/><path class="cls-2" d="M3070.77,540.69l-68.58-109.53a109.25,109.25,0,0,1,49.8,39.29C3072.72,500.47,3071.47,531.5,3070.77,540.69Z" transform="translate(-2987.04 -299.24)"/><path class="cls-2" d="M3072.22,540.65l69.41-109.5a113.1,113.1,0,0,0-49.25,39.29C3071.54,500.15,3071.75,530.84,3072.22,540.65Z" transform="translate(-2987.04 -299.24)"/><path class="cls-3" d="M3082.07,389.32q5.72,0.06,11.5.16l9,0.18a5.54,5.54,0,0,1,.19,10.77l-20.67,0Q3082.09,394.86,3082.07,389.32Z" transform="translate(-2987.04 -299.24)"/><path class="cls-3" d="M3045.06,389.5c-1.09-.1-10.89-0.84-14.79,5.27a10.35,10.35,0,0,0-1.5,4.77c-0.92,11.12,12.9,21.23,15.92,23.32a47.72,47.72,0,1,0,10.28-84,44.61,44.61,0,0,0-17.42,11.28,53.54,53.54,0,0,0-7,9.78,62.51,62.51,0,0,0-4.64,9.9,5.75,5.75,0,0,1-10.66-2.63A54.85,54.85,0,0,1,3029,343.13a57,57,0,0,1,17-12.79,59,59,0,0,1,25.2-5.77,60.07,60.07,0,0,1,30.59,8.15,58.76,58.76,0,0,1,20.68,20.93,59.25,59.25,0,0,1-27.45,84.11c-2.6,1.13-22.87,9.54-45.13.75A59.86,59.86,0,0,1,3029,424.23c-7.19-7.61-9.52-14.22-10.15-16.17a23.61,23.61,0,0,1-1.38-10.15,20.21,20.21,0,0,1,5.2-12.1c3.3-3.45,7.09-4.55,12.35-6.08a47.31,47.31,0,0,1,9.78-1.75Z" transform="translate(-2987.04 -299.24)"/><path class="cls-3" d="M3073.31,405.47l-17-.48a15,15,0,0,1-8.46-5.26c-2-2.67-2.39-5.42-3-10.34a53.37,53.37,0,0,1-.19-11.47,15.56,15.56,0,0,1,3-10.94,15.34,15.34,0,0,1,8-5.41l17.84-.38Q3073.37,383.32,3073.31,405.47Z" transform="translate(-2987.04 -299.24)"/><path class="cls-3" d="M3082.07,367q5.72,0.06,11.5.16l9,0.18a5.54,5.54,0,0,1,.19,10.77l-20.67,0Q3082.09,372.53,3082.07,367Z" transform="translate(-2987.04 -299.24)"/><path class="cls-4" d="M3073.42,360.22c-0.05-.94-0.1-1.22-0.16-3.22H3082v51.57l-8.76.09c0-1-.06-2.14-0.05-3.12C3073.29,390.51,3073.32,375.27,3073.42,360.22Z" transform="translate(-2987.04 -299.24)"/><path class="cls-4" d="M3044.53,383.59a23,23,0,0,0-11.73,2c-1.95.9-5.94,2.73-8.27,6.62-5,8.31,1.41,19.57,2.86,22.11,3.67,6.45,8.54,9.94,12.18,12.49a56.5,56.5,0,0,0,26.93,9.78c4.81,0.43,19.56,1.52,34.3-8a53.23,53.23,0,0,0,21.06-26.78,54.31,54.31,0,0,0-.15-36.25,54.92,54.92,0,0,0-26-29.48,53.62,53.62,0,0,0-32-5.57,52.75,52.75,0,0,0-25.12,10.83,57.35,57.35,0,0,0-13.84,16.7,69.25,69.25,0,0,0-6.32,14.14,5.9,5.9,0,0,0,4.51.15,5.22,5.22,0,0,0,2.86-2.71,55.11,55.11,0,0,1,5.42-11,49.44,49.44,0,0,1,9.78-11.43,47.53,47.53,0,0,1,15.19-8.72c17.11-5.92,32.15.35,34.45,1.35a48.1,48.1,0,0,1,10.68,81.23,47.36,47.36,0,0,1-23.47,10.08s-16.73,2.17-31.89-7.37a47.74,47.74,0,0,1-9.78-8.27c-2.8-3.09-5.08-5.67-6.32-9.78-0.77-2.54-2.08-6.84.15-10.53,2.12-3.5,6.27-4.54,8.57-5.11a18.83,18.83,0,0,1,6.47-.45" transform="translate(-2987.04 -299.24)"/><path class="cls-1" d="M3070.77,540.69l-68.58-109.53a109.25,109.25,0,0,1,49.8,39.29C3072.72,500.47,3071.47,531.5,3070.77,540.69Z" transform="translate(-2987.04 -299.24)"/><path class="cls-1" d="M3072.22,540.65l69.41-109.5a113.1,113.1,0,0,0-49.25,39.29C3071.54,500.15,3071.75,530.84,3072.22,540.65Z" transform="translate(-2987.04 -299.24)"/></svg>
