<svg id="Layer_1" data-name="Layer 1" xmlns="http://www.w3.org/2000/svg" width="32" height="64" viewBox="0 0 146.55 230.81"><defs><style>.cls-1{fill:#29abe2;stroke:#000;stroke-miterlimit:10;}.cls-2{fill:#1f80aa;}.cls-3{fill:#155671;}</style></defs><title>marker_blue_v3</title><path class="cls-1" d="M3657.32,62.84a80,80,0,0,0-12-4.48,70.74,70.74,0,0,0-18.56-2.44,70,70,0,0,0-30.18,7c-7,3.53-28.76,15.63-38.21,40.87a69.21,69.21,0,0,0-4.37,25.16c0.37,21.66,11.06,36.95,15.44,42.57h-0.15a635.14,635.14,0,0,1,33.5,58c9.94,19.46,18.26,38,25.25,55.38,7.24-18.28,15.89-37.85,26.25-58.31,9.26-18.28,18.74-35,28.08-50.23,4.74-5.89,17.23-23.06,17.16-47.4a72.66,72.66,0,0,0-4.72-25.22C3686,80.54,3667.6,67.78,3657.32,62.84Z" transform="translate(-3553.45 -55.41)"/><path class="cls-2" d="M3633.86,133.58q5.72,0.06,11.5.16l9,0.18a5.54,5.54,0,0,1,.19,10.77l-20.67,0Q3633.88,139.11,3633.86,133.58Z" transform="translate(-3553.45 -55.41)"/><path class="cls-2" d="M3600.84,133.75c-1.09-.1-10.89-0.84-14.79,5.27a10.35,10.35,0,0,0-1.5,4.77c-0.92,11.12,12.9,21.23,15.92,23.32a47.72,47.72,0,1,0,10.28-84,44.61,44.61,0,0,0-17.42,11.28,53.54,53.54,0,0,0-7,9.78,62.51,62.51,0,0,0-4.64,9.9,5.75,5.75,0,0,1-10.66-2.63,54.85,54.85,0,0,1,13.79-24.07,57,57,0,0,1,17-12.79,59,59,0,0,1,25.2-5.77A60.07,60.07,0,0,1,3657.63,77a58.76,58.76,0,0,1,20.68,20.93A59.25,59.25,0,0,1,3650.86,182c-2.6,1.13-22.87,9.54-45.13.75a59.86,59.86,0,0,1-20.93-14.29c-7.19-7.61-9.52-14.22-10.15-16.17a23.61,23.61,0,0,1-1.38-10.15,20.21,20.21,0,0,1,5.2-12.1c3.3-3.45,7.09-4.55,12.35-6.08a47.31,47.31,0,0,1,9.78-1.75Z" transform="translate(-3553.45 -55.41)"/><path class="cls-2" d="M3629.09,149.72l-17-.48a15,15,0,0,1-8.46-5.26c-2-2.67-2.39-5.42-3-10.34a53.37,53.37,0,0,1-.19-11.47,15.56,15.56,0,0,1,3-10.94,15.34,15.34,0,0,1,8-5.41l17.84-.38Q3629.16,127.57,3629.09,149.72Z" transform="translate(-3553.45 -55.41)"/><path class="cls-2" d="M3633.86,111.24q5.72,0.06,11.5.16l9,0.18a5.54,5.54,0,0,1,.19,10.77l-20.67,0Q3633.88,116.78,3633.86,111.24Z" transform="translate(-3553.45 -55.41)"/><path class="cls-3" d="M3629.21,105.85a10.49,10.49,0,0,1-.16-1.85H3634v48.82l-6.86.09c0-1,.89-1.46.89-2.43C3628.13,135.45,3629.11,120.89,3629.21,105.85Z" transform="translate(-3553.45 -55.41)"/><path class="cls-3" d="M3600.32,127.85a23,23,0,0,0-11.73,2c-1.95.9-5.94,2.73-8.27,6.62-5,8.31,1.41,19.57,2.86,22.11,3.67,6.45,8.54,9.94,12.18,12.49a56.5,56.5,0,0,0,26.93,9.78c4.81,0.43,19.56,1.52,34.3-8A53.23,53.23,0,0,0,3677.64,146a54.31,54.31,0,0,0-.15-36.25,54.92,54.92,0,0,0-26-29.48,53.62,53.62,0,0,0-32-5.57,52.75,52.75,0,0,0-25.12,10.83,57.35,57.35,0,0,0-13.84,16.7,69.25,69.25,0,0,0-6.32,14.14,5.9,5.9,0,0,0,4.51.15,5.22,5.22,0,0,0,2.86-2.71,55.11,55.11,0,0,1,5.42-11,49.44,49.44,0,0,1,9.78-11.43,47.53,47.53,0,0,1,15.19-8.72c17.11-5.92,32.15.35,34.45,1.35A48.1,48.1,0,0,1,3657,165.3a47.36,47.36,0,0,1-23.47,10.08s-16.73,2.17-31.89-7.37a47.74,47.74,0,0,1-9.78-8.27c-2.8-3.09-5.08-5.67-6.32-9.78-0.77-2.54-2.08-6.84.15-10.53,2.12-3.5,6.27-4.54,8.57-5.11a18.83,18.83,0,0,1,6.47-.45" transform="translate(-3553.45 -55.41)"/><path class="cls-1" d="M3720.33,189" transform="translate(-3553.45 -55.41)"/></svg>
