<svg id="Layer_1" data-name="Layer 1" xmlns="http://www.w3.org/2000/svg" width="32" height="64" viewBox="0 0 146.54 230.83"><defs><style>.cls-1{fill:#feff4d;}.cls-1,.cls-6{stroke:#000;stroke-miterlimit:10;}.cls-2{fill:#4c704b;}.cls-3{fill:#bfbf3a;}.cls-4{fill:#72a870;}.cls-5{fill:#155671;}.cls-6{fill:#29abe2;}</style></defs><title>marker_yellow_v3</title><path class="cls-1" d="M103.87,7.43a80,80,0,0,0-12-4.48A70.74,70.74,0,0,0,73.31.51a70,70,0,0,0-30.18,7C36.13,11,14.37,23.14,4.92,48.38A69.21,69.21,0,0,0,.55,73.54C0.92,95.2,11.61,110.49,16,116.11H15.84a635.13,635.13,0,0,1,33.5,58c9.94,19.46,18.26,38,25.25,55.38,7.24-18.28,15.89-37.85,26.25-58.31,9.26-18.28,18.74-35,28.08-50.23,4.74-5.89,17.23-23.06,17.16-47.4a72.66,72.66,0,0,0-4.72-25.22C132.55,25.13,114.15,12.37,103.87,7.43Z" transform="translate(-0.04 -0.01)"/><path class="cls-2" d="M80.41,78.17q5.72,0.06,11.5.16l9,0.18a5.54,5.54,0,0,1,.19,10.77H80.43Q80.43,83.7,80.41,78.17Z" transform="translate(-0.04 -0.01)"/><path class="cls-3" d="M47.39,78.34c-1.09-.1-10.89-0.84-14.79,5.27a10.35,10.35,0,0,0-1.5,4.77C30.18,99.5,44,109.61,47,111.7a47.72,47.72,0,1,0,10.28-84A44.61,44.61,0,0,0,39.88,39a53.53,53.53,0,0,0-7,9.78,62.5,62.5,0,0,0-4.64,9.9A5.75,5.75,0,0,1,17.58,56,54.85,54.85,0,0,1,31.37,32a57,57,0,0,1,17-12.79,59,59,0,0,1,25.2-5.77,60.07,60.07,0,0,1,30.61,8.19,59.22,59.22,0,0,1-6.77,105c-2.6,1.13-22.87,9.54-45.13.75A59.86,59.86,0,0,1,31.35,113c-7.19-7.61-9.52-14.22-10.15-16.17a23.61,23.61,0,0,1-1.38-10.15A20.21,20.21,0,0,1,25,74.63c3.3-3.45,7.09-4.55,12.35-6.08a47.31,47.31,0,0,1,9.78-1.75Z" transform="translate(-0.04 -0.01)"/><path class="cls-4" d="M75.64,94.31l-17-.48a15,15,0,0,1-8.46-5.26c-2-2.67-2.39-5.42-3-10.34A53.37,53.37,0,0,1,47,66.76a15.56,15.56,0,0,1,3-10.94,15.34,15.34,0,0,1,8-5.41L75.83,50Q75.71,72.16,75.64,94.31Z" transform="translate(-0.04 -0.01)"/><path class="cls-2" d="M80.41,55.83q5.72,0.06,11.5.16l9,0.18a5.54,5.54,0,0,1,.19,10.77H80.43Q80.43,61.37,80.41,55.83Z" transform="translate(-0.04 -0.01)"/><path class="cls-5" d="M75.76,50.44a10.49,10.49,0,0,1-.16-1.85h4.95V97.41l-6.86.09c0-1,.89-1.46.89-2.43C74.68,80,75.66,65.48,75.76,50.44Z" transform="translate(-0.04 -0.01)"/><path class="cls-2" d="M46.87,72.44a23,23,0,0,0-11.73,2c-1.95.9-5.94,2.73-8.27,6.62-5,8.31,1.41,19.57,2.86,22.11,3.67,6.45,8.54,9.94,12.18,12.49a56.5,56.5,0,0,0,26.93,9.78c4.81,0.43,19.56,1.52,34.3-8a53.23,53.23,0,0,0,21-26.85A54.31,54.31,0,0,0,124,54.34,54.92,54.92,0,0,0,98,24.86a53.62,53.62,0,0,0-32-5.57A52.75,52.75,0,0,0,40.92,30.12a57.35,57.35,0,0,0-13.84,16.7A69.24,69.24,0,0,0,20.76,61a5.9,5.9,0,0,0,4.51.15,5.22,5.22,0,0,0,2.86-2.71,55.11,55.11,0,0,1,5.42-11A49.44,49.44,0,0,1,43.33,36a47.53,47.53,0,0,1,15.19-8.72C75.63,21.33,90.67,27.6,93,28.6a48.1,48.1,0,0,1,10.58,81.29A47.36,47.36,0,0,1,80.08,120s-16.73,2.17-31.89-7.37a47.74,47.74,0,0,1-9.78-8.27c-2.8-3.09-5.08-5.67-6.32-9.78C31.32,92,30,87.71,32.24,84c2.12-3.5,6.27-4.54,8.57-5.11a18.83,18.83,0,0,1,6.47-.45" transform="translate(-0.04 -0.01)"/><path class="cls-6" d="M166.88,133.59" transform="translate(-0.04 -0.01)"/></svg>
