<svg xmlns="http://www.w3.org/2000/svg" width="32px" height="32px" viewBox="0 0 228.05 204.09"><defs><style>.a{fill:#ff575c;}.b{fill:#f2f2f2;}.c,.d,.e{fill:none;stroke-miterlimit:10;}.c,.e{stroke:#000;}.c{stroke-width:3px;}.d{stroke:#ff575c;}.d,.e{stroke-width:20px;}</style></defs><title>nav-delete-icon</title><path class="a" d="M846.35,307.2H793V242.06h40.72l12.65,14.51V307.2Z" transform="translate(-792.98 -242)"/><path class="b" d="M802,242v15.27a1.72,1.72,0,0,0,1.66,1.73h25.07c0.92,0,1.27-.81,1.27-1.73V242H802Zm26,13.58a1.42,1.42,0,0,1-1.42,1.42h-3.16a1.42,1.42,0,0,1-1.42-1.42V245.42a1.42,1.42,0,0,1,1.42-1.42h3.16a1.42,1.42,0,0,1,1.42,1.42v10.16Z" transform="translate(-792.98 -242)"/><rect class="b" x="2.66" y="20.26" width="47.37" height="41.46" rx="2.11" ry="2.11"/><line class="c" x1="7.07" y1="27.96" x2="45.57" y2="27.96"/><line class="c" x1="7.07" y1="32.96" x2="45.57" y2="32.96"/><line class="c" x1="7.07" y1="37.96" x2="45.57" y2="37.96"/><line class="c" x1="7.07" y1="42.96" x2="45.57" y2="42.96"/><line class="c" x1="7.07" y1="47.96" x2="45.57" y2="47.96"/><line class="c" x1="7.07" y1="52.96" x2="45.57" y2="52.96"/><line class="c" x1="7.07" y1="57.96" x2="45.57" y2="57.96"/><path class="a" d="M976,301.38q22.5,23.56,45,47.13-22.52,21.82-45,43.64V301.38Z" transform="translate(-792.98 -242)"/><line class="d" x1="102.22" y1="204.02" x2="102.69" y2="137.03"/><line class="e" x1="102.22" y1="58.07" x2="102.22" y2="0.47"/><line class="e" x1="58.01" y1="102.21" x2="0.41" y2="102.21"/><line class="d" x1="204.03" y1="102.21" x2="146.42" y2="102.21"/><path class="d" d="M895.67,388.88a44.15,44.15,0,0,0,44.17-44.17" transform="translate(-792.98 -242)"/><path class="d" d="M894,389" transform="translate(-792.98 -242)"/><path class="d" d="M894,346" transform="translate(-792.98 -242)"/><path class="d" d="M940,347" transform="translate(-792.98 -242)"/><path class="d" d="M897,347" transform="translate(-792.98 -242)"/><path class="d" d="M894,300" transform="translate(-792.98 -242)"/><path class="d" d="M894,346" transform="translate(-792.98 -242)"/><path class="d" d="M851,347" transform="translate(-792.98 -242)"/><path class="e" d="M939.84,344.7a44.17,44.17,0,1,0-44.17,44.17" transform="translate(-792.98 -242)"/><path class="e" d="M894,389" transform="translate(-792.98 -242)"/><path class="e" d="M894,346" transform="translate(-792.98 -242)"/><path class="e" d="M940,347" transform="translate(-792.98 -242)"/><path class="e" d="M897,347" transform="translate(-792.98 -242)"/><path class="e" d="M894,300" transform="translate(-792.98 -242)"/><path class="e" d="M894,346" transform="translate(-792.98 -242)"/><path class="e" d="M851,347" transform="translate(-792.98 -242)"/></svg>
