<svg xmlns="http://www.w3.org/2000/svg" width="32px" height="32px" viewBox="0 0 228.05 204.09"><defs><style>.a{fill:#98e095;}.b,.c,.e{fill:none;stroke-miterlimit:10;}.b{stroke:#98e095;}.b,.c{stroke-width:20px;}.c,.e{stroke:#000;}.d{fill:#f2f2f2;}.e{stroke-width:3px;}</style></defs><title>nav-save-icon</title><path class="a" d="M975,69.38q22.5,23.56,45,47.13-22.52,21.82-45,43.64V69.38Z" transform="translate(-791.98 -10)"/><line class="b" x1="102.22" y1="204.02" x2="102.69" y2="137.03"/><line class="c" x1="102.22" y1="58.07" x2="102.22" y2="0.47"/><line class="c" x1="58.01" y1="102.21" x2="0.41" y2="102.21"/><line class="b" x1="204.03" y1="102.21" x2="146.42" y2="102.21"/><path class="b" d="M894.67,156.88a44.15,44.15,0,0,0,44.17-44.17" transform="translate(-791.98 -10)"/><path class="b" d="M893,157" transform="translate(-791.98 -10)"/><path class="b" d="M893,114" transform="translate(-791.98 -10)"/><path class="b" d="M939,115" transform="translate(-791.98 -10)"/><path class="b" d="M896,115" transform="translate(-791.98 -10)"/><path class="b" d="M893,68" transform="translate(-791.98 -10)"/><path class="b" d="M893,114" transform="translate(-791.98 -10)"/><path class="b" d="M850,115" transform="translate(-791.98 -10)"/><path class="c" d="M938.84,112.7a44.17,44.17,0,1,0-44.17,44.17" transform="translate(-791.98 -10)"/><path class="c" d="M893,157" transform="translate(-791.98 -10)"/><path class="c" d="M893,114" transform="translate(-791.98 -10)"/><path class="c" d="M939,115" transform="translate(-791.98 -10)"/><path class="c" d="M896,115" transform="translate(-791.98 -10)"/><path class="c" d="M893,68" transform="translate(-791.98 -10)"/><path class="c" d="M893,114" transform="translate(-791.98 -10)"/><path class="c" d="M850,115" transform="translate(-791.98 -10)"/><path class="a" d="M845.35,75.2H792V10.06h40.72l12.65,14.51V75.2Z" transform="translate(-791.98 -10)"/><path class="d" d="M801,10V25.27A1.72,1.72,0,0,0,802.66,27h25.07c0.92,0,1.27-.81,1.27-1.73V10H801Zm26,13.58A1.42,1.42,0,0,1,825.58,25h-3.16A1.42,1.42,0,0,1,821,23.58V13.42A1.42,1.42,0,0,1,822.42,12h3.16A1.42,1.42,0,0,1,827,13.42V23.58Z" transform="translate(-791.98 -10)"/><rect class="d" x="2.66" y="20.26" width="47.37" height="41.46" rx="2.11" ry="2.11"/><line class="e" x1="7.07" y1="27.96" x2="45.57" y2="27.96"/><line class="e" x1="7.07" y1="32.96" x2="45.57" y2="32.96"/><line class="e" x1="7.07" y1="37.96" x2="45.57" y2="37.96"/><line class="e" x1="7.07" y1="42.96" x2="45.57" y2="42.96"/><line class="e" x1="7.07" y1="47.96" x2="45.57" y2="47.96"/><line class="e" x1="7.07" y1="52.96" x2="45.57" y2="52.96"/><line class="e" x1="7.07" y1="57.96" x2="45.57" y2="57.96"/></svg>
