<svg xmlns="http://www.w3.org/2000/svg" width="32px" height="32px" viewBox="0 0 228.03 203.63"><defs><style>.a{fill:#ff575c;}.b,.c{fill:none;stroke-miterlimit:10;stroke-width:20px;}.b{stroke:#ff575c;}.c{stroke:#000;}</style></defs><title>nav-remove-icon</title><path class="a" d="M711,298.38q22.5,23.56,45,47.13-22.52,21.82-45,43.64V298.38Z" transform="translate(-528 -239.47)"/><line class="b" x1="102.2" y1="203.56" x2="102.67" y2="136.56"/><line class="c" x1="102.2" y1="57.61" x2="102.2"/><line class="c" x1="58" y1="101.75" x2="0.39" y2="101.75"/><line class="b" x1="204.01" y1="101.75" x2="146.4" y2="101.75"/><path class="b" d="M630.67,385.88a44.15,44.15,0,0,0,44.17-44.17" transform="translate(-528 -239.47)"/><path class="b" d="M629,386" transform="translate(-528 -239.47)"/><path class="b" d="M629,343" transform="translate(-528 -239.47)"/><path class="b" d="M675,344" transform="translate(-528 -239.47)"/><path class="b" d="M632,344" transform="translate(-528 -239.47)"/><path class="b" d="M629,297" transform="translate(-528 -239.47)"/><path class="b" d="M629,343" transform="translate(-528 -239.47)"/><path class="b" d="M586,344" transform="translate(-528 -239.47)"/><path class="c" d="M674.84,341.7a44.17,44.17,0,1,0-44.17,44.17" transform="translate(-528 -239.47)"/><path class="c" d="M629,386" transform="translate(-528 -239.47)"/><path class="c" d="M629,343" transform="translate(-528 -239.47)"/><path class="c" d="M675,344" transform="translate(-528 -239.47)"/><path class="c" d="M632,344" transform="translate(-528 -239.47)"/><path class="c" d="M629,297" transform="translate(-528 -239.47)"/><path class="c" d="M629,343" transform="translate(-528 -239.47)"/><path class="c" d="M586,344" transform="translate(-528 -239.47)"/><line class="b" y1="31.02" x2="62.03" y2="31.02"/></svg>
