<svg id="Layer_2" data-name="Layer 2" xmlns="http://www.w3.org/2000/svg" viewBox="0 0 623.82 627.08"><defs><style>.cls-1{fill:#5a85ff;stroke:#000;stroke-miterlimit:10;opacity:0.5;}.cls-2{fill:lime;}.cls-3{fill:#b3b3b3;}.cls-4{fill:#4d4d4d;}.cls-5{fill:#71d171;}.cls-6{fill:#39b54a;}.cls-7{fill:#9d9d9d;}.cls-8{fill:#272727;}</style></defs><title>markercluster</title><circle class="cls-1" cx="310.35" cy="315.69" r="309.85"/><path class="cls-2" d="M448.05,314.47" transform="translate(-84.02 -88.79)"/><path class="cls-3" d="M448,314.23c37,0.33,74,.78,111,1.12a29.84,29.84,0,0,1,.68,58.65H448" transform="translate(-84.02 -88.79)"/><path class="cls-4" d="M253,434.05c-5.78-.51-57.91-4.46-78.66,28-1.76,2.76-6.84,11.33-8,25.35-4.89,59.15,68.62,112.9,84.67,124,57.29,39.68,115.51,43.95,133.33,44.67,23.19,0.94,83,.16,144-38,70.82-44.31,97.06-110.12,104.67-132,7.52-21.61,26.68-86.08,2-162-19.7-60.6-57.73-98.92-82-118.67-46.36-37.71-93.18-48.83-108.67-52-16-3.28-72.77-13.23-138.67,11.33-15.81,5.89-57,21.69-92.67,60-18.66,20.06-31.08,41.22-37.33,52a332.45,332.45,0,0,0-24.67,52.67,30.59,30.59,0,0,1-56.67-14,291.73,291.73,0,0,1,73.33-128,303.24,303.24,0,0,1,90.67-68c14.89-7.28,64.94-30.22,134-30.67,85.17-.56,146,33.44,162.67,43.33,59.26,35.19,92.94,82.06,110,111.33,46,78.93,43.92,154.77,42,181.33a317.07,317.07,0,0,1-58,160.67c-17,23.8-58.07,74.14-130,105.33-13.84,6-121.63,50.74-240,4-13.36-5.28-64.66-26.64-111.33-76-38.25-40.45-50.63-75.62-54-86-4.3-13.23-9.62-30.85-7.33-54,1-9.87,4.38-40,27.67-64.33,17.57-18.35,37.68-24.2,65.67-32.33a251.58,251.58,0,0,1,52-9.33Z" transform="translate(-84.02 -88.79)"/><path class="cls-5" d="M385.05,518.47l-72-2c-10.18-2.49-30.86-9.18-45-28-10.69-14.22-12.7-28.82-16-55a283.84,283.84,0,0,1-1-61c-0.69-6.06-3.11-33.35,15.71-58.21a81.58,81.58,0,0,1,42.29-28.79l79-3Z" transform="translate(-84.02 -88.79)"/><path class="cls-6" d="M388,282h16.43c-0.65,79-1.3,157-2,236H385" transform="translate(-84.02 -88.79)"/><path class="cls-7" d="M463,493.1c-5,0-10,.32-15,0.37V434h15.05C463,454,463,473.48,463,493.1Z" transform="translate(-84.02 -88.79)"/><path class="cls-5" d="M447.05,270h-43c-0.58,67-.92,134.23-1,201.23,0,22.33,0,44.78,0,67.12,14.66,0.33,29.32.49,44,.82C447,449.51,447,360,447.05,270Z" transform="translate(-84.02 -88.79)"/><path class="cls-3" d="M463,314.52c32,0.57,64,1.26,96,1.83a30,30,0,0,1,23,27.82c0.52,13.73-8.6,25.82-22,29.82h-97C463,354,463,334.42,463,314.52Z" transform="translate(-84.02 -88.79)"/><path class="cls-7" d="M463.05,374h-15c-0.33-20-.67-39.77-1-59.77,5.33,0.1,10.66.07,16,.17C463,334.31,463,354,463.05,374Z" transform="translate(-84.02 -88.79)"/><path class="cls-5" d="M403.88,284.23c-0.28-5-.56-10.23-0.83-15.23H448V539.47l-45.81.5c0-5.17.07-10.45,0.1-15.62Q403.08,404.35,403.88,284.23Z" transform="translate(-84.02 -88.79)"/><path class="cls-3" d="M463,494.15h-15" transform="translate(-84.02 -88.79)"/><path class="cls-3" d="M463.05,435l96.71-.07a30.5,30.5,0,0,1,23.31,28.23c0.5,13.86-9.07,26.47-22.84,30.23H463" transform="translate(-84.02 -88.79)"/><path class="cls-3" d="M448.47,435h14.58" transform="translate(-84.02 -88.79)"/><path class="cls-2" d="M447.88,374.47c0.22,20,.36,40.28.58,60.5" transform="translate(-84.02 -88.79)"/><path class="cls-2" d="M448.05,315.47l-1,59" transform="translate(-84.02 -88.79)"/><path class="cls-8" d="M250.25,402.67a122.35,122.35,0,0,0-62.4,10.4c-10.37,4.77-31.57,14.53-44,35.2-26.58,44.19,7.5,104.07,15.2,117.6,19.51,34.29,45.42,52.84,64.8,66.4,60.77,42.53,122.78,50.19,143.2,52,25.56,2.27,104,8.07,182.4-42.4,73.87-47.56,102.64-116.08,112-142.4,32.79-92.17,7.06-171.17-.8-192.8-36.72-101.06-118-146.25-138.4-156.8-27.61-14.29-90.41-41.07-170.4-29.6-21.15,3-78.83,13.82-133.6,57.6-39.41,31.5-60.59,66.72-73.6,88.8a368.27,368.27,0,0,0-33.6,75.2c2.56,1.12,13.07,5.37,24,.8,8.4-3.51,13.6-10,15.2-14.4a293.07,293.07,0,0,1,28.8-58.4c7.9-12.34,23.78-36.72,52-60.8a252.78,252.78,0,0,1,80.8-46.4c91-31.47,171,1.88,183.2,7.2a258.46,258.46,0,0,1,139.2,151.2c22.06,65.32,10.7,123.28,2.4,152-8.74,30.25-30.55,85.08-84.8,128.8-18.77,15.13-61.93,45.45-124.8,53.6,0,0-89,11.53-169.6-39.2a253.91,253.91,0,0,1-52-44c-14.88-16.44-27-30.16-33.6-52-4.07-13.52-11.06-36.38.8-56,11.26-18.63,33.33-24.14,45.6-27.2a100.13,100.13,0,0,1,34.4-2.4" transform="translate(-84.02 -88.79)"/></svg>