<svg id="Layer_4" data-name="Layer 4" xmlns="http://www.w3.org/2000/svg" width="26" height="26" viewBox="0 0 393.63 395.62"><defs><style>.cls-1{fill:#94938f;}.cls-1,.cls-2,.cls-3,.cls-4{stroke:#000;stroke-miterlimit:10;stroke-width:7px;}.cls-2{fill:#e6e6e6;}.cls-3{fill:#706f6a;}.cls-4{fill:none;}</style></defs><title>ukjent</title><path class="cls-1" d="M6147.13,492.31c107.31,0,194.31-87,194.31-194.31s-87-194.31-194.31-194.31" transform="translate(-5951.31 -100.19)"/><path class="cls-2" d="M6149.12,103.69c-107.31,0-194.31,87-194.31,194.31s87,194.31,194.31,194.31" transform="translate(-5951.31 -100.19)"/><path class="cls-3" d="M6149.12,244.78a63.3,63.3,0,0,0,0-126.59" transform="translate(-5951.31 -100.19)"/><path class="cls-1" d="M6149.12,118.18a63.3,63.3,0,1,0,0,126.59" transform="translate(-5951.31 -100.19)"/><path class="cls-3" d="M6149.12,474.5a63.3,63.3,0,1,0,0-126.59" transform="translate(-5951.31 -100.19)"/><path class="cls-1" d="M6149.12,347.91a63.3,63.3,0,1,0,0,126.59" transform="translate(-5951.31 -100.19)"/><circle class="cls-3" cx="296.42" cy="197.81" r="63.3"/><circle class="cls-1" cx="100.65" cy="197.81" r="63.3"/><circle class="cls-3" cx="296.42" cy="197.81" r="47.71"/><circle class="cls-1" cx="100.65" cy="197.81" r="47.71"/><path class="cls-3" d="M6148.5,181.5" transform="translate(-5951.31 -100.19)"/><line class="cls-4" x1="150.6" y1="39.12" x2="150.6" y2="39.12"/><line class="cls-4" x1="150.6" y1="39.12" x2="245.63" y2="122.76"/><line class="cls-4" x1="248.71" y1="43.66" x2="146.97" y2="119"/><line class="cls-4" x1="244.79" y1="268.6" x2="244.79" y2="268.6"/><line class="cls-4" x1="150.6" y1="269.56" x2="245.63" y2="353.2"/><line class="cls-4" x1="249.74" y1="272.86" x2="147.99" y2="348.2"/></svg>
