<svg id="Layer_2" data-name="Layer 2" xmlns="http://www.w3.org/2000/svg" width="26" height="26" viewBox="0 0 284.76 396.98"><defs><style>.cls-1{fill:#94938f;}.cls-1,.cls-2,.cls-3{stroke:#000;stroke-miterlimit:10;stroke-width:7px;}.cls-2{fill:#e6e6e6;}.cls-3{fill:#706f6a;}</style></defs><title>combo1</title><path class="cls-1" d="M7225.57,363.45a138.88,138.88,0,1,0,0-277.76" transform="translate(-7083.19 -82.19)"/><path class="cls-2" d="M7225.57,85.69a138.88,138.88,0,0,0,0,277.76" transform="translate(-7083.19 -82.19)"/><circle class="cls-1" cx="88.62" cy="77.1" r="41.04"/><circle class="cls-3" cx="202.03" cy="79.96" r="41.04"/><circle class="cls-1" cx="62.69" cy="177.76" r="28.17"/><circle class="cls-3" cx="226.83" cy="177.76" r="28.17"/><path class="cls-2" d="M7226,261.2a39.13,39.13,0,1,0,0,78.26" transform="translate(-7083.19 -82.19)"/><path class="cls-1" d="M7226,339.47a39.13,39.13,0,1,0,0-78.26" transform="translate(-7083.19 -82.19)"/><circle cx="62.69" cy="177.76" r="4.5"/><circle cx="88.62" cy="77.1" r="4.5"/><circle cx="202.03" cy="79.96" r="4.5"/><circle cx="226.83" cy="177.76" r="4.5"/><circle cx="142.79" cy="218.14" r="4.5"/><path class="cls-1" d="M7226.67,367.11h80.44a48.7,48.7,0,0,1,48.56,48.56v11.44a48.7,48.7,0,0,1-48.56,48.56h-80.44" transform="translate(-7083.19 -82.19)"/><path class="cls-2" d="M7226.67,475.67h-80.44a48.7,48.7,0,0,1-48.56-48.56V415.67a48.7,48.7,0,0,1,48.56-48.56h80.44" transform="translate(-7083.19 -82.19)"/><circle class="cls-1" cx="72.94" cy="339.2" r="43.16"/><circle class="cls-3" cx="215.94" cy="339.2" r="43.16"/></svg>
