<svg id="Layer_2" data-name="Layer 2" xmlns="http://www.w3.org/2000/svg" width="26" height="26" viewBox="0 0 282.28 377.35"><defs><style>.cls-1{fill:#e6e6e6;}.cls-1,.cls-2,.cls-3{stroke:#000;stroke-miterlimit:10;stroke-width:7px;}.cls-2{fill:#94938f;}.cls-3{fill:#706f6a;}</style></defs><title>combo2</title><path class="cls-1" d="M8245.94,352.9c-9.29,0-61.89-.61-101.1-42.51-32.19-34.4-35.21-75.07-36-88.15s-2.19-44.11,16.78-76.76a130.39,130.39,0,0,1,52.64-49.83l67.68-.15" transform="translate(-8104.97 -92)"/><path class="cls-2" d="M8245.94,95.5l59,0.74a77.17,77.17,0,0,1,12.36,3.07c38,12.87,54.5,52,57.48,59,13.11,31.07,8.65,59.14,6,74.26-2.45,14.2-9.75,53.15-44.44,84.51-36.46,33-78.78,35.49-90.49,35.8" transform="translate(-8104.97 -92)"/><path class="cls-3" d="M8265,144.3c1.08,14.19,13,27,27.88,26.62,15.05-.41,26.61-14.24,26.56-29.42-0.05-14.34-10.46-26.88-23.24-28.72C8279.72,110.4,8263.66,126.49,8265,144.3Z" transform="translate(-8104.97 -92)"/><path class="cls-2" d="M8199.64,112.59c13.76-.82,26.32,11.11,28.65,25.3,1.58,9.59-1.41,20.8-9.33,27.41-12.68,10.59-34,6-42-8.43-5.08-9.25-3.66-20.69.67-28.82C8178.31,126.82,8185.73,113.41,8199.64,112.59Z" transform="translate(-8104.97 -92)"/><path class="cls-3" d="M8334.24,162.87c1,0,23.89-.1,35.51,20.5a44.28,44.28,0,0,1-1.34,45.24c-12.53,19-40.21,24.43-58.29,9.9-12.94-10.4-19.26-29.65-13.4-47.36A40.86,40.86,0,0,1,8334.24,162.87Z" transform="translate(-8104.97 -92)"/><path class="cls-3" d="M8286.24,247a40,40,0,0,1,38.88,23.12,43.56,43.56,0,0,1-1.41,38.78c-9.26,16.77-30,26-48.78,18.65-20.28-8-30.66-32.57-24-53A40.5,40.5,0,0,1,8286.24,247Z" transform="translate(-8104.97 -92)"/><path class="cls-2" d="M8199.28,247.74A39,39,0,0,1,8236,276.08a41.92,41.92,0,0,1-14.85,44.75c-16.56,12.23-41.58,9-53.73-9-10.51-15.52-7.81-36.76,2.83-50C8171.51,260.4,8182.11,247.69,8199.28,247.74Z" transform="translate(-8104.97 -92)"/><path class="cls-2" d="M8153.33,166.44c15.83-.41,31.23,10.09,36.76,26.85s-0.08,35.39-13.43,45.5c-15.47,11.71-37.54,8.91-50.19-6-11.5-13.52-12.53-33.85-3.53-48.48C8133.41,167.3,8152.27,166.47,8153.33,166.44Z" transform="translate(-8104.97 -92)"/><path class="cls-2" d="M8247.36,245.5c-23.27,1.83-45.37-21-42.42-44.75,2.48-20,21.92-35,41.71-33.56" transform="translate(-8104.97 -92)"/><path class="cls-3" d="M8246.65,167c20.17,1.7,35.88,18.09,36.76,37.46,0.94,20.72-15.36,39.34-37,41.08" transform="translate(-8104.97 -92)"/><ellipse cx="141.44" cy="114.35" rx="8.43" ry="8.9"/><ellipse cx="229.95" cy="112.82" rx="7.2" ry="7.59"/><ellipse cx="188.78" cy="49.74" rx="7.2" ry="7.59"/><ellipse cx="96.25" cy="49.83" rx="7.2" ry="7.59"/><ellipse cx="49.58" cy="112.82" rx="7.2" ry="7.59"/><ellipse cx="183.98" cy="196.5" rx="7.2" ry="7.59"/><ellipse cx="94.27" cy="196.5" rx="7.2" ry="7.59"/><path class="cls-2" d="M8245.94,357.29h80.44a48.7,48.7,0,0,1,48.56,48.56v11.44a48.7,48.7,0,0,1-48.56,48.56h-80.44" transform="translate(-8104.97 -92)"/><path class="cls-1" d="M8245.94,465.85H8165.5a48.7,48.7,0,0,1-48.56-48.56V405.85a48.7,48.7,0,0,1,48.56-48.56h80.44" transform="translate(-8104.97 -92)"/><circle class="cls-2" cx="70.43" cy="319.57" r="43.16"/><circle class="cls-3" cx="213.43" cy="319.57" r="43.16"/></svg>
