<svg id="Layer_1" data-name="Layer 1" xmlns="http://www.w3.org/2000/svg" width="26" height="26" viewBox="0 0 399.72 399.72"><defs><style>.cls-1{fill:#94938f;}.cls-1,.cls-2,.cls-3,.cls-4{stroke:#000;stroke-miterlimit:10;stroke-width:7px;}.cls-2{fill:#e6e6e6;}.cls-3{fill:#b3b3b3;}.cls-4{fill:#706f6a;}</style></defs><title>danish</title><path class="cls-1" d="M1631.24,457.39c108.45,0,196.36-87.91,196.36-196.36S1739.69,64.67,1631.24,64.67" transform="translate(-1431.38 -61.17)"/><path class="cls-2" d="M1631.24,64.67c-108.45,0-196.36,87.91-196.36,196.36s87.91,196.36,196.36,196.36" transform="translate(-1431.38 -61.17)"/><circle class="cls-3" cx="110.12" cy="199.33" r="25.83"/><path class="cls-4" d="M1631.24,372.66l28.09-.33,1.33,28.67a31.43,31.43,0,0,1-28,18" transform="translate(-1431.38 -61.17)"/><path class="cls-4" d="M1730.17,234.67A25.83,25.83,0,1,0,1756,260.5a25.83,25.83,0,0,0-25.83-25.83" transform="translate(-1431.38 -61.17)"/><path class="cls-3" d="M1632.67,419a31.42,31.42,0,0,1-28-16.67l-2-29.33,28.57-.34" transform="translate(-1431.38 -61.17)"/></svg>
