<svg id="Layer_4" data-name="Layer 4" xmlns="http://www.w3.org/2000/svg" width="26" height="26" viewBox="0 0 393.63 395.62"><defs><style>.cls-1{fill:#94938f;}.cls-1,.cls-2,.cls-3{stroke:#000;stroke-miterlimit:10;stroke-width:7px;}.cls-2{fill:#e6e6e6;}.cls-3,.cls-4{fill:#706f6a;}.cls-5{fill:#4d4d4d;}</style></defs><title>industrial5pin</title><path class="cls-1" d="M11307.35,482.81c107.31,0,194.31-87,194.31-194.31s-87-194.31-194.31-194.31" transform="translate(-11111.53 -90.7)"/><path class="cls-2" d="M11309.34,94.2c-107.31,0-194.31,87-194.31,194.31s87,194.31,194.31,194.31" transform="translate(-11111.53 -90.7)"/><path class="cls-1" d="M11309.34,461.71a54.45,54.45,0,0,1,0-108.9" transform="translate(-11111.53 -90.7)"/><path class="cls-3" d="M11309.34,352.81a54.45,54.45,0,1,1,0,108.9" transform="translate(-11111.53 -90.7)"/><path class="cls-4" d="M11309.34,443.41a36.14,36.14,0,1,1,0-72.29" transform="translate(-11111.53 -90.7)"/><path class="cls-5" d="M11309.34,371.12a36.14,36.14,0,1,1,0,72.29" transform="translate(-11111.53 -90.7)"/><circle class="cls-3" cx="314.13" cy="234.6" r="44.55"/><circle class="cls-5" cx="314.13" cy="234.6" r="27.21"/><circle class="cls-3" cx="269.58" cy="96.07" r="44.55"/><circle class="cls-5" cx="269.58" cy="96.07" r="27.21"/><circle class="cls-1" cx="126.03" cy="96.07" r="44.55"/><circle class="cls-4" cx="126.03" cy="96.07" r="27.21"/><circle class="cls-1" cx="81.48" cy="234.6" r="44.55"/><circle class="cls-4" cx="81.48" cy="234.6" r="27.21"/></svg>
