<svg id="Layer_4" data-name="Layer 4" xmlns="http://www.w3.org/2000/svg" width="26" height="26" viewBox="0 0 393.63 395.62"><defs><style>.cls-1{fill:#94938f;}.cls-1,.cls-2,.cls-3{stroke:#000;stroke-miterlimit:10;stroke-width:7px;}.cls-2{fill:#e6e6e6;}.cls-3,.cls-4{fill:#706f6a;}.cls-5{fill:#4d4d4d;}</style></defs><title>industrial3pin</title><path class="cls-1" d="M9325.68,482.81c107.31,0,194.31-87,194.31-194.31S9433,94.2,9325.68,94.2" transform="translate(-9129.87 -90.7)"/><path class="cls-2" d="M9327.67,94.2c-107.31,0-194.31,87-194.31,194.31s87,194.31,194.31,194.31" transform="translate(-9129.87 -90.7)"/><circle class="cls-1" cx="112.48" cy="117.95" r="44.33"/><circle class="cls-3" cx="283.42" cy="118.17" r="44.55"/><path class="cls-1" d="M9327.67,452.57a54.45,54.45,0,0,1,0-108.9" transform="translate(-9129.87 -90.7)"/><path class="cls-3" d="M9327.67,343.66a54.45,54.45,0,0,1,0,108.9" transform="translate(-9129.87 -90.7)"/><circle class="cls-4" cx="112.48" cy="117.95" r="27.21"/><circle class="cls-5" cx="283.42" cy="118.17" r="27.21"/><path class="cls-4" d="M9327.67,434.26a36.14,36.14,0,0,1,0-72.29" transform="translate(-9129.87 -90.7)"/><path class="cls-5" d="M9327.67,362a36.14,36.14,0,1,1,0,72.29" transform="translate(-9129.87 -90.7)"/></svg>
