<svg id="Layer_4" data-name="Layer 4" xmlns="http://www.w3.org/2000/svg" width="26" height="26" viewBox="0 0 393.63 395.62"><defs><style>.cls-1{fill:#94938f;}.cls-1,.cls-2,.cls-3{stroke:#000;stroke-miterlimit:10;stroke-width:7px;}.cls-2{fill:#e6e6e6;}.cls-3,.cls-4{fill:#706f6a;}.cls-5{fill:#4d4d4d;}</style></defs><title>industrial4pin</title><path class="cls-1" d="M10332.68,474.31c107.31,0,194.31-87,194.31-194.31s-87-194.31-194.31-194.31" transform="translate(-10136.87 -82.19)"/><path class="cls-2" d="M10334.67,85.69c-107.31,0-194.31,87-194.31,194.31s87,194.31,194.31,194.31" transform="translate(-10136.87 -82.19)"/><path class="cls-1" d="M10334.67,452.57a54.45,54.45,0,0,1,0-108.9" transform="translate(-10136.87 -82.19)"/><path class="cls-3" d="M10334.67,343.66a54.45,54.45,0,1,1,0,108.9" transform="translate(-10136.87 -82.19)"/><path class="cls-4" d="M10334.67,434.26a36.14,36.14,0,1,1,0-72.29" transform="translate(-10136.87 -82.19)"/><path class="cls-5" d="M10334.67,362a36.14,36.14,0,1,1,0,72.29" transform="translate(-10136.87 -82.19)"/><path class="cls-1" d="M10336.42,197.41a44.55,44.55,0,1,1,0-89.1" transform="translate(-10136.87 -82.19)"/><path class="cls-3" d="M10336.42,108.32a44.55,44.55,0,0,1,0,89.1" transform="translate(-10136.87 -82.19)"/><path class="cls-4" d="M10336.42,180.08a27.21,27.21,0,1,1,0-54.43" transform="translate(-10136.87 -82.19)"/><path class="cls-5" d="M10336.42,125.65a27.21,27.21,0,0,1,0,54.43" transform="translate(-10136.87 -82.19)"/><circle class="cls-1" cx="98.81" cy="188.67" r="44.55"/><circle class="cls-4" cx="98.81" cy="188.67" r="27.21"/><circle class="cls-3" cx="296.81" cy="188.67" r="44.55"/><circle class="cls-5" cx="296.81" cy="188.67" r="27.21"/></svg>
