<svg id="Layer_4" data-name="Layer 4" xmlns="http://www.w3.org/2000/svg" width="26" height="26" viewBox="0 0 393.63 395.62"><defs><style>.cls-1{fill:#94938f;}.cls-1,.cls-2,.cls-3{stroke:#000;stroke-miterlimit:10;stroke-width:7px;}.cls-2{fill:#e6e6e6;}.cls-3,.cls-5{fill:#706f6a;}.cls-4{fill:#4d4d4d;}</style></defs><title>marechal</title><path class="cls-1" d="M12289.35,475.05c107.31,0,194.31-87,194.31-194.31s-87-194.31-194.31-194.31" transform="translate(-12093.53 -82.94)"/><path class="cls-2" d="M12291.34,86.44c-107.31,0-194.31,87-194.31,194.31s87,194.31,194.31,194.31" transform="translate(-12093.53 -82.94)"/><circle class="cls-3" cx="286.97" cy="101.6" r="30.46"/><circle class="cls-4" cx="286.97" cy="101.6" r="18.61"/><circle class="cls-3" cx="286.97" cy="294.89" r="30.46"/><circle class="cls-4" cx="286.97" cy="294.89" r="18.61"/><circle class="cls-1" cx="104.97" cy="101.6" r="30.46"/><circle class="cls-5" cx="104.97" cy="101.6" r="18.61"/><circle class="cls-1" cx="104.97" cy="294.89" r="30.46"/><circle class="cls-5" cx="104.97" cy="294.89" r="18.61"/><path class="cls-1" d="M12291.34,307.29a30.46,30.46,0,1,1,0-60.93" transform="translate(-12093.53 -82.94)"/><path class="cls-3" d="M12291.34,246.36a30.46,30.46,0,1,1,0,60.93" transform="translate(-12093.53 -82.94)"/><path class="cls-5" d="M12291.34,295.44a18.61,18.61,0,0,1,0-37.22" transform="translate(-12093.53 -82.94)"/><path class="cls-4" d="M12291.34,258.22a18.61,18.61,0,1,1,0,37.22" transform="translate(-12093.53 -82.94)"/></svg>
