<svg id="Layer_1" data-name="Layer 1" xmlns="http://www.w3.org/2000/svg" width="26" height="26" viewBox="0 0 396.72 399.08"><defs><style>.cls-1{fill:#e6e6e6;}.cls-1,.cls-2,.cls-3,.cls-4{stroke:#000;stroke-miterlimit:10;stroke-width:7px;}.cls-2{fill:#94938f;}.cls-3{fill:#706f6a;}.cls-4{fill:#b3b3b3;}</style></defs><title>schuko</title><path class="cls-1" d="M480.5,447.92l-15.86-.29-1.22,27.46a196.77,196.77,0,0,1-153-98.18q-0.3-18.14-.6-36.28t-0.6-36.28C301.43,304,293.7,304,286,303.6c-0.2-15.85-.41-32.1-0.61-47.1h23.18c0.41-25,.81-49.24,1.21-73.63,8.73-15.69,30.55-50.07,73.17-74A190.8,190.8,0,0,1,462.81,85c0.41,7.72.81,15.39,1.22,23.11l16.47-.33" transform="translate(-281.82 -79.84)"/><path class="cls-2" d="M480.5,107.76l15.84-.31c0.41-7.93.81-15.88,1.22-23.81A196.33,196.33,0,0,1,589.83,116C623.71,138.69,642,166.59,651,181.8l-0.39,70.73,23.78,1L675,304.37l-23.78.61-0.61,72a168.34,168.34,0,0,1-51.22,63.41C557.23,472,512.52,473.92,497,473.88q0-12.83,0-25.66l-16.46-.3" transform="translate(-281.82 -79.84)"/><circle class="cls-3" cx="299.75" cy="199.16" r="24.82"/><circle class="cls-4" cx="95.5" cy="199.16" r="24.82"/></svg>
