<svg id="Layer_3" data-name="Layer 3" xmlns="http://www.w3.org/2000/svg" width="26" height="26" viewBox="0 0 394.62 395.62"><defs><style>.cls-1{fill:#94938f;}.cls-1,.cls-2,.cls-3{stroke:#000;stroke-miterlimit:10;stroke-width:7px;}.cls-2{fill:#e6e6e6;}.cls-3{fill:#706f6a;}</style></defs><title>teslar_r</title><path class="cls-1" d="M5023.42,474.31c107.31,0,194.31-87,194.31-194.31s-87-194.31-194.31-194.31" transform="translate(-4826.61 -82.19)"/><path class="cls-2" d="M5024.41,85.69c-107.31,0-194.31,87-194.31,194.31s87,194.31,194.31,194.31" transform="translate(-4826.61 -82.19)"/><path class="cls-3" d="M5024.41,224.5a63.3,63.3,0,1,0,0-126.59" transform="translate(-4826.61 -82.19)"/><path class="cls-1" d="M5024.41,97.91a63.3,63.3,0,1,0,0,126.59" transform="translate(-4826.61 -82.19)"/><circle class="cls-3" cx="299.97" cy="198.81" r="63.3"/><circle class="cls-1" cx="100.65" cy="197.81" r="63.3"/><path class="cls-3" d="M5023.42,462.51a63.3,63.3,0,0,0,0-126.59" transform="translate(-4826.61 -82.19)"/><path class="cls-1" d="M5023.42,335.91a63.3,63.3,0,1,0,0,126.59" transform="translate(-4826.61 -82.19)"/><circle cx="100.65" cy="197.81" r="12"/><circle cx="197.81" cy="79.01" r="12"/><circle cx="197.81" cy="317.02" r="12"/><circle cx="299.97" cy="198.81" r="12"/></svg>
