<svg id="Layer_2" data-name="Layer 2" xmlns="http://www.w3.org/2000/svg" width="26" height="26" viewBox="0 0 392.54 367.5"><defs><style>.cls-1{fill:#e6e6e6;}.cls-1,.cls-2,.cls-3{stroke:#000;stroke-miterlimit:10;stroke-width:7px;}.cls-2{fill:#94938f;}.cls-3{fill:#706f6a;}</style></defs><title>type2_tesla</title><path class="cls-1" d="M2804,456c-13,.06-86.68-0.86-141.59-59.54C2617.33,348.29,2613.09,291.32,2612,273c-1.08-18.15-3.07-61.78,23.5-107.5,24.09-41.46,58.46-61.9,73.72-69.8l94.78-.2" transform="translate(-2607.97 -92)"/><path class="cls-2" d="M2804,95.5l82.68,1a108.07,108.07,0,0,1,17.31,4.3c53.23,18,76.33,72.76,80.5,82.66,18.36,43.52,12.12,82.83,8.47,104-3.43,19.89-13.66,74.44-62.24,118.36C2879.68,452,2820.4,455.57,2804,456" transform="translate(-2607.97 -92)"/><path class="cls-3" d="M2829.71,163.85c1.51,19.87,18.24,37.85,39.05,37.28,21.08-.58,37.27-19.94,37.19-41.2-0.08-20.08-14.65-37.64-32.54-40.22C2850.31,116.37,2827.82,138.91,2829.71,163.85Z" transform="translate(-2607.97 -92)"/><path class="cls-2" d="M2738.16,119.43c19.27-1.14,36.86,15.56,40.12,35.44,2.21,13.43-2,29.14-13.06,38.39-17.76,14.83-47.66,8.44-58.79-11.81-7.12-13-5.13-29,.93-40.36C2708.29,139.36,2718.67,120.59,2738.16,119.43Z" transform="translate(-2607.97 -92)"/><path class="cls-3" d="M2926.67,189.85c1.41,0,33.46-.14,49.73,28.71,11.47,20.32,9.81,45.61-1.88,63.36-17.54,26.65-56.32,34.21-81.64,13.86-18.12-14.57-27-41.53-18.77-66.33C2882.21,205,2904.33,190.34,2926.67,189.85Z" transform="translate(-2607.97 -92)"/><path class="cls-3" d="M2859.44,307.67a56,56,0,0,1,54.46,32.38,61,61,0,0,1-2,54.32c-13,23.49-42.08,36.46-68.32,26.11-28.41-11.21-42.94-45.61-33.66-74.16A56.72,56.72,0,0,1,2859.44,307.67Z" transform="translate(-2607.97 -92)"/><path class="cls-2" d="M2737.66,308.71c21.79,0.07,44.27,14.78,51.49,39.69,7.08,24.42-3.11,49.62-20.79,62.67-23.19,17.12-58.23,12.6-75.25-12.53-14.72-21.74-10.94-51.48,4-70C2698.77,326.44,2713.6,308.64,2737.66,308.71Z" transform="translate(-2607.97 -92)"/><path class="cls-2" d="M2673.3,194.86c22.18-.58,43.73,14.13,51.49,37.6S2724.67,282,2706,296.18c-21.67,16.4-52.58,12.48-70.3-8.36-16.1-18.93-17.55-47.4-5-67.9C2645.4,196.06,2671.81,194.89,2673.3,194.86Z" transform="translate(-2607.97 -92)"/><path class="cls-2" d="M2805,305.58c-32.59,2.56-63.54-29.38-59.41-62.67,3.47-28,30.7-49,58.42-47" transform="translate(-2607.97 -92)"/><path class="cls-3" d="M2804,195.67c28.25,2.38,50.26,25.33,51.48,52.46,1.31,29-21.51,55.1-51.82,57.54" transform="translate(-2607.97 -92)"/><ellipse cx="195.7" cy="158.75" rx="11.81" ry="12.46"/><ellipse cx="319.65" cy="156.61" rx="10.08" ry="10.63"/><ellipse cx="261.99" cy="68.26" rx="10.08" ry="10.63"/><ellipse cx="132.41" cy="68.38" rx="10.08" ry="10.63"/><ellipse cx="67.04" cy="156.61" rx="10.08" ry="10.63"/><ellipse cx="255.27" cy="273.81" rx="10.08" ry="10.63"/><ellipse cx="129.63" cy="273.81" rx="10.08" ry="10.63"/></svg>
