<svg id="Layer_2" data-name="Layer 2" xmlns="http://www.w3.org/2000/svg" width="26" height="26" viewBox="0 0 395.62 395.62"><defs><style>.cls-1{fill:#e6e6e6;}.cls-1,.cls-2,.cls-3{stroke:#000;stroke-miterlimit:10;stroke-width:7px;}.cls-2{fill:#94938f;}.cls-3{fill:#706f6a;}</style></defs><title>type1</title><path class="cls-1" d="M3927.71,81.08c-107.31,0-194.31,87-194.31,194.31s87,194.31,194.31,194.31" transform="translate(-3729.9 -77.58)"/><path class="cls-2" d="M3927.71,469.69c107.31,0,194.31-87,194.31-194.31S4035,81.08,3927.71,81.08" transform="translate(-3729.9 -77.58)"/><circle class="cls-2" cx="122.02" cy="118.01" r="57.42"/><circle class="cls-3" cx="280.68" cy="122.01" r="57.42"/><circle class="cls-2" cx="85.74" cy="258.84" r="39.42"/><circle class="cls-3" cx="315.39" cy="258.84" r="39.42"/><path class="cls-2" d="M3927.71,447.67a54.75,54.75,0,1,0,0-109.5" transform="translate(-3729.9 -77.58)"/><path class="cls-1" d="M3927.71,338.17a54.75,54.75,0,0,0,0,109.5" transform="translate(-3729.9 -77.58)"/><circle cx="122.02" cy="118.01" r="6.29"/><circle cx="280.77" cy="122.01" r="6.29"/><circle cx="83.39" cy="258.84" r="6.29"/><circle cx="315.39" cy="258.84" r="6.29"/><circle cx="197.81" cy="315.34" r="6.29"/></svg>
